<svg xmlns="http://www.w3.org/2000/svg" width="48.913" height="45" viewBox="0 0 48.913 45">
  <path id="_137" data-name="137" d="M48.989,14.154l-7.7-12.183A4.257,4.257,0,0,0,37.676,0h-25A4.257,4.257,0,0,0,9.064,1.971L1.36,14.154A4.154,4.154,0,0,0,1.742,19.1L23.561,44.266a2.139,2.139,0,0,0,3.226,0L48.607,19.1A4.154,4.154,0,0,0,48.989,14.154ZM27.045,40.905a2.291,2.291,0,0,1-1.646.484,2.263,2.263,0,0,1-1.515-.788L13.908,28.757a2.132,2.132,0,0,1,.314-3.064,2.3,2.3,0,0,1,3.161.3l9.976,11.844a2.129,2.129,0,0,1,.522,1.618,2.156,2.156,0,0,1-.836,1.489Z" transform="translate(-0.718)" fill="#ff35b7" fill-rule="evenodd"/>
</svg>
