<svg id="SvgjsSvg1142" width="288" height="288" xmlns="http://www.w3.org/2000/svg" version="1.1" xmlns:xlink="http://www.w3.org/1999/xlink" xmlns:svgjs="http://svgjs.com/svgjs"><defs id="SvgjsDefs1143"></defs><g id="SvgjsG1144"><svg xmlns="http://www.w3.org/2000/svg" width="288" height="288" viewBox="0 0 155 155"><circle cx="77.5" cy="77.5" r="77.5" fill="#cedff2" class="color90DEA9 svgShape"></circle><rect width="79.688" height="60.031" x="37.656" y="52.797" fill="#7fb9fa" class="colorFAD97F svgShape"></rect><path fill="#025bbf" d="M37.656,52.797v15.584c0,2.444,1.982,4.428,4.428,4.428c2.444,0,4.426-1.983,4.426-4.428V52.797H37.656z" class="colorF67656 svgShape"></path><path fill="#3883d6" d="M46.51,52.797v15.584c0,2.444,1.982,4.428,4.428,4.428s4.428-1.983,4.428-4.428V52.797H46.51z" class="colorD65A38 svgShape"></path><path fill="#025bbf" d="M55.365,52.797v15.584c0,2.444,1.98,4.428,4.427,4.428c2.444,0,4.427-1.983,4.427-4.428V52.797H55.365z" class="colorF67656 svgShape"></path><path fill="#3883d6" d="M64.219,52.797v15.584c0,2.444,1.982,4.428,4.427,4.428c2.446,0,4.428-1.983,4.428-4.428V52.797H64.219z" class="colorD65A38 svgShape"></path><path fill="#025bbf" d="M73.073,52.797v15.584c0,2.444,1.981,4.428,4.427,4.428s4.427-1.983,4.427-4.428V52.797H73.073z" class="colorF67656 svgShape"></path><path fill="#3883d6" d="M81.927,52.797v15.584c0,2.444,1.982,4.428,4.428,4.428s4.427-1.983,4.427-4.428V52.797H81.927z" class="colorD65A38 svgShape"></path><path fill="#025bbf" d="M90.781,52.797v15.584c0,2.444,1.981,4.428,4.427,4.428c2.446,0,4.428-1.983,4.428-4.428V52.797H90.781z" class="colorF67656 svgShape"></path><path fill="#3883d6" d="M99.636,52.797v15.584c0,2.444,1.981,4.428,4.427,4.428s4.427-1.983,4.427-4.428V52.797H99.636z" class="colorD65A38 svgShape"></path><path fill="#025bbf" d="M108.489,52.797v15.584c0,2.444,1.981,4.428,4.428,4.428c2.445,0,4.427-1.983,4.427-4.428V52.797H108.489     z" class="colorF67656 svgShape"></path><path fill="#025bbf" d="M120,50.141c0-0.68-0.26-1.359-0.778-1.878s-1.198-0.778-1.878-0.778H37.656    c-0.68,0-1.359,0.26-1.879,0.778C35.26,48.781,35,49.461,35,50.141l0,0c0,0.68,0.26,1.359,0.777,1.879    c0.52,0.519,1.199,0.777,1.879,0.777h79.688c0.68,0,1.359-0.259,1.878-0.777C119.74,51.5,120,50.82,120,50.141L120,50.141z" class="color3F4A5A svgShape"></path><path fill="#025bbf" d="M95.209,45.172c0-0.768-0.293-1.535-0.879-2.121s-1.354-0.879-2.121-0.879H62.792     c-0.768,0-1.536,0.293-2.121,0.879c-0.586,0.586-0.879,1.354-0.879,2.121v7.625h35.417V45.172z" class="color3F4A5A svgShape"></path><rect width="30.104" height="5.313" x="62.448" y="44.828" fill="#cedff2" class="colorFFF svgShape"></rect><rect width="17.709" height="34.531" x="46.51" y="78.297" fill="#025bbf" class="color3F4A5A svgShape"></rect><rect width="12.396" height="29.219" x="49.166" y="80.953" fill="#cedff2" class="colorFFF svgShape"></rect><rect width="12.396" height="2.656" x="49.166" y="94.234" fill="#025bbf" class="color3F4A5A svgShape"></rect><g fill="#025bbf" class="color000 svgShape"><rect width="35.416" height="18.594" x="73.073" y="78.297" fill="#025bbf" class="color3F4A5A svgShape"></rect><rect width="30.104" height="13.281" x="75.729" y="80.953" fill="#cedff2" class="colorFFF svgShape"></rect><rect width="2.656" height="13.281" x="89.453" y="80.953" fill="#025bbf" class="color3F4A5A svgShape"></rect></g><rect width="79.688" height="2.656" x="37.656" y="110.172" fill="#025bbf" class="color3F4A5A svgShape"></rect></svg></g></svg>