<svg xmlns="http://www.w3.org/2000/svg" enable-background="new 0 0 105 105" viewBox="0 0 105 105"><path d="M93.9604492 99.5537109h-9.5622559l2.9890137-7.9082031 9.7421875 1.5976563c.3847656.0683594.7646484-.0996094.984375-.4179688.2197266-.3173828.2373047-.734375.0439453-1.0683594L86.6661987 71.8535156h1.8469849c1.8095703 0 3.2275391-1.4179688 3.2275391-3.2275391v-7.9316406l6.8554688-3.9462891c1.5283203-.8916016 2.0654297-2.8115234 1.2070313-4.3945313l-3.9853516-6.8925781 3.9990234-6.8759766c.8447266-1.5585938.3076172-3.4785156-1.2255859-4.3720703l-6.8505859-3.9443359v-7.9316406c0-1.8095703-1.4179688-3.2275391-3.2275391-3.2275391h-7.9306641l-3.9472656-6.8544922c-.890625-1.5273438-2.8095703-2.0673828-4.3955078-1.2070313l-6.8505859 3.9853516-6.9169922-4.0009766c-1.5605469-.84375-3.4785156-.3056641-4.3720703 1.2275391l-3.9443359 6.8496094h-2.1726685c-.8917999-1.2096958-2.2098846-1.8037109-3.5372925-1.8037109h-.2666016c-.0009766 0-.0009766 0-.0019531 0l-9.5683594.0185547c1.0429688-2.3828125 1.9814453-5.890625 2.0625-8.0126953.1198692-3.0949454-2.3398666-5.8652344-5.7402344-5.8652344-1.2705078 0-2.3554688.9111328-2.5791016 2.1660156-.1191406.6660156-.3222656 1.4228516-.6025391 2.2490234-1.6450195 4.8452148-5.0185547 8.9365234-9.5322266 11.6635742v-.2680664c0-1.8144531-1.4755859-3.2900391-3.2900391-3.2900391H8.074707c-1.8134766 0-3.2890625 1.4755859-3.2890625 3.2900391v22.8730469c0 1.8144531 1.4755859 3.2900391 3.2890625 3.2900391h6.8525391c1.8144531 0 3.2900391-1.4755859 3.2900391-3.2900391v-.1865234h1.4404297c.5158405 0 .499897.1067924 4.5751953 1.578125 2.4970703.9208984 5.1113281 1.3876953 7.7714844 1.3876953h2.5950317l.3209839.5517578-3.9990234 6.9169922C30.0766602 53.9375 30.6137695 55.8564453 32.1479492 56.75l6.8496094 3.9443359v1.2548828c0 .5527344.4472656 1 1 1s1-.4472656 1-1v-1.8330078c0-.3574219-.1914063-.6884766-.5009766-.8662109l-7.3457031-4.2304688c-.5908203-.34375-.7978516-1.0859375-.4853516-1.6640625l4.2763672-7.3955078c.1796875-.3105469.1796875-.6933594-.0009766-1.0039063l-.0272827-.046875h6.4329834c-.0059814.1906738-.0238647.378418-.0238647.5703125 0 12.1572266 9.890625 22.0478516 22.0478516 22.0478516 12.15625 0 22.046875-9.890625 22.046875-22.0478516 0-7.0771484-3.4335938-13.7714844-9.1855469-17.9082031-.4482422-.3222656-1.0732422-.2216797-1.3955078.2275391-.3232422.4482422-.2207031 1.0732422.2275391 1.3955078 5.2304688 3.7626953 8.3535156 9.8505859 8.3535156 16.2851563 0 11.0546875-8.9931641 20.0478516-20.046875 20.0478516-11.0546875 0-20.0478516-8.9931641-20.0478516-20.0478516 0-.2961426.0112305-.5895996.0280151-.8815918.5101318-.208252.9768677-.5158691 1.3723755-.9152832.7958984-.7880859 1.234375-1.8427734 1.234375-2.9697266 0-1.1005859-.4238281-2.1035156-1.1171875-2.8535156.2636719-.1660156.5087891-.3603516.7304688-.5820313.7939453-.7939453 1.2314453-1.8476563 1.2314453-2.9658203 0-.0209961-.0050049-.0405273-.0053101-.0612793 3.6079102-5.3120117 9.6819458-8.817627 16.5736694-8.817627 2.2695313 0 4.4970703.3759766 6.6201172 1.1191406.5224609.1835938 1.0917969-.0927734 1.2744141-.6142578.1816406-.5214844-.0927734-1.0917969-.6142578-1.2744141-2.3359375-.8164063-4.7851563-1.2304688-7.2802734-1.2304688-6.1704712 0-11.7478638 2.5561523-15.7523193 6.6560059.3764648-.614502.6016235-1.3122559.6243896-2.0456543.0531578-1.6655617-.9342995-3.1415882-2.3964844-3.8710938.5751953-.6982422.9101563-1.5615234.9521484-2.4716797.0089111-.199707-.0141602-.3950195-.0341797-.5908203h1.9697266c.3574219 0 .6884766-.1914063.8662109-.5009766l4.2294922-7.3457031c.3447266-.5898438 1.0859375-.7988281 1.6660156-.4853516l7.3945313 4.2773438c.3105469.1787109.6933594.1796875 1.0039063-.0009766l7.3251953-4.2626953c.6035156-.3251953 1.3447266-.1181641 1.6865234.4667969l4.2324219 7.3505859c.1777344.3095703.5087891.5009766.8662109.5009766h8.5087891c.7001953 0 1.2275391.5273438 1.2275391 1.2275391v8.5097656c0 .3574219.1914063.6884766.5009766.8662109l7.3466797 4.2304688c.5908203.34375.796875 1.0859375.4853516 1.6621094l-4.2763672 7.3505859c-.1806641.3105469-.1806641.6933594-.0009766 1.0039063l4.2626953 7.3710938c.3261719.6025391.1201172 1.3447266-.4658203 1.6865234L90.2416992 59.25c-.3095703.1777344-.5009766.5087891-.5009766.8662109v8.5097656c0 .7001953-.5273438 1.2275391-1.2275391 1.2275391h-8.5087891c-.3574219 0-.6884766.1914063-.8662109.5009766l-4.2294922 7.3457031c-.3447266.5898438-1.0839844.7978516-1.6630859.4863281l-7.3515625-4.2773438c-.3095703-.1806641-.6923828-.1806641-1.0039063-.0009766l-7.3691406 4.2626953C56.9155273 78.5 56.175293 78.2900391 55.8325195 77.7050781l-4.2324219-7.3505859c-.1777344-.3095703-.5087891-.5009766-.8662109-.5009766h-8.5087891c-.7001953 0-1.2275391-.5273438-1.2275391-1.2275391v-2.6455078c0-.5527344-.4472656-1-1-1s-1 .4472656-1 1v2.6455078c0 1.8095703 1.4179688 3.2275391 3.2275391 3.2275391h1.8446045L32.5854492 91.7568359c-.1933594.3349609-.1757813.7509766.0439453 1.0683594.2197266.3193359.6015625.4863281.984375.4179688l9.7412109-1.5976563 2.9818115 7.9082031H10.324707c-.5527344 0-1 .4472656-1 1s.4472656 1 1 1h83.6357422c.5527344 0 1-.4472656 1-1S94.5131836 99.5537109 93.9604492 99.5537109zM16.2172852 42.1298828c0 .7109375-.5791016 1.2900391-1.2900391 1.2900391H8.074707c-.7109375 0-1.2890625-.5791016-1.2890625-1.2900391V19.2568359c0-.7109375.578125-1.2900391 1.2890625-1.2900391h6.8525391c.7109375 0 1.2900391.5791016 1.2900391 1.2900391V42.1298828zM47.8793945 31.6855469c.2175903-.1049805.4243774-.2304688.619812-.3713379-.1622314.1931152-.3149414.3937988-.4706421.5922852C47.977417 31.8337402 47.9349365 31.7548828 47.8793945 31.6855469zM48.2446289 27.9804688c-.0350266 1.1111279-.9397202 2.1269531-2.203125 2.1269531-.2405624-.0002651-8.5725899-.0096436-8.6728516-.0097656-.5527344 0-1 .4472656-1 1s.4472656 1 1 1h7.1810913c.0169678.0009766.03125.0097656.0484009.0097656 1.2158203 0 2.2041016.9882813 2.2041016 2.2041016 0 1.1884727-.9458351 2.1543121-2.1394043 2.190918-.022583-.001709-.041748-.0131836-.0646973-.0131836h-7.2294922c-.5527344 0-1 .4472656-1 1s.4472656 1 1 1h6.2957764c.0334473.003418.062439.0195313.0968018.0195313 1.2109375 0 2.1962891.9882813 2.1962891 2.2041016 0 .5888672-.2275391 1.1386719-.6484375 1.5556641-.4091797.4130859-.9589844.640625-1.5478516.640625H32.0043945c-2.4228516 0-4.8046875-.4257813-7.0800781-1.2646484-3.8909378-1.3737373-4.1998501-1.7011719-5.2666016-1.7011719h-1.4394531V21.8544922c5.4462891-2.9482422 9.5029297-7.6865234 11.4257813-13.3505859.3115234-.9199219.5400391-1.7744141.6767578-2.5400391.0537109-.2998047.3105469-.5175781.6611328-.5175781 2.068943 0 3.7717781 1.699388 3.6914063 3.7890625-.0888672 2.2958984-1.421875 6.7753906-2.546875 8.5576172-.1943359.3085938-.2060547.6992188-.0292969 1.0175781.1757813.3193359.5107422.5166016.875.5166016.0009766 0 .0009766 0 .0019531 0l11.4716797-.0214844c1.2860794 0 2.4107628 1.0484505 2.3544922 2.3037109-.0544472 1.1726894-1.0277023 2.0966797-2.2021484 2.0966797h-7.2294922c-.5527344 0-1 .4472656-1 1s.4472656 1 1 1c.3901138 0 8.8836708 0 8.5117188 0C47.1464424 25.7060547 48.2838135 26.7396259 48.2446289 27.9804688zM73.8266602 80.328125c1.1201172 0 2.203125-.5820313 2.8115234-1.625l3.9443359-6.8496094h3.7736816l11.0124512 19.0742188-8.4648438-1.3876953c-.4716797-.0839844-.9287109.1875-1.0976563.6328125l-3.0341797 8.0263672L72.203064 79.8930664l.0630493.0366211C72.7651367 80.2001953 73.2993164 80.328125 73.8266602 80.328125zM43.8393555 89.5400391l-8.4658203 1.3886719 11.0056152-19.0751953h3.7766113l3.9472656 6.8544922c.8916016 1.5283203 2.8085938 2.0644531 4.3945313 1.2080078l.0289307-.0166016-10.5640869 18.296875-3.0253906-8.0224609C44.7620735 89.7088623 44.2815247 89.4610825 43.8393555 89.5400391zM61.9941406 77.8937988l3.3959961-1.9641113 3.3352661 1.9401855 12.5195313 21.6838379H49.4884644L61.9941406 77.8937988zM6.1469727 99.5537109H4.5336914c-.5527344 0-1 .4472656-1 1s.4472656 1 1 1h1.6132813c.5527344 0 1-.4472656 1-1S6.699707 99.5537109 6.1469727 99.5537109zM100.4663086 99.5537109H97.887207c-.5527344 0-1 .4472656-1 1s.4472656 1 1 1h2.5791016c.5527344 0 1-.4472656 1-1S101.019043 99.5537109 100.4663086 99.5537109z" fill="#2a84ff" class="color000000 svgShape"></path><path d="M78.7504883 42.3945313c-.1171875-.3613281-.4296875-.6259766-.8066406-.6806641l-8.0449219-1.1777344-3.6113281-7.3408203c-.1679688-.3408203-.5146484-.5576172-.8955078-.5585938-.0009766 0-.0009766 0-.0019531 0-.3798828 0-.7265625.2148438-.8955078.5546875l-3.6523438 7.34375-8.0478516 1.1787109c-.3769531.0546875-.6894531.3193359-.8066406.6806641-.1171875.3623047-.0185547.7597656.2539063 1.0253906l5.8466797 5.6894531-1.4130859 8.0439453c-.0654297.375.0878906.7558594.3955078.9804688.3019981.2210159.7091522.2578049 1.0546875.078125l7.2636719-3.8085938 7.2216797 3.8076172c.3398438.1777344.7470703.1474609 1.0556641-.0761719.3085938-.2255859.4619141-.6054688.3964844-.9814453l-1.4130859-8.0439453 5.8466797-5.6894531C78.769043 43.1542969 78.8676758 42.7568359 78.7504883 42.3945313zM70.8764648 48.0449219c-.2373047.2304688-.3447266.5634766-.2880859.8896484l1.1513672 6.5556641-5.8828125-3.1015625c-.2919922-.1542969-.6396484-.1533203-.9316406-.0009766l-5.9277344 3.1083984 1.1523438-6.5615234c.0566406-.3261719-.0507813-.6591797-.2880974-.8896484l-4.7734261-4.6455078 6.5605469-.9609375c.3242188-.046875.6044922-.2509766.7509766-.5439453l2.9853516-6.0029297 2.9511719 5.9990234c.1455078.2958984.4267578.5.7529297.5478516l6.5605469.9609375L70.8764648 48.0449219zM11.5014648 34.9130859c-1.8291016 0-3.3173828 1.4882813-3.3173828 3.3173828s1.4882813 3.3173828 3.3173828 3.3173828 3.3173828-1.4882813 3.3173828-3.3173828S13.3305664 34.9130859 11.5014648 34.9130859zM11.5014648 39.5478516c-.7265625 0-1.3173828-.5908203-1.3173828-1.3173828s.5908203-1.3173828 1.3173828-1.3173828 1.3173828.5908203 1.3173828 1.3173828S12.2280273 39.5478516 11.5014648 39.5478516z" fill="#2a84ff" class="color000000 svgShape"></path></svg>